<?xml version="1.0" encoding="UTF-8"?>
<svg id="a" data-name="Layer 6" xmlns="http://www.w3.org/2000/svg" viewBox="0 0 256 256">
  <defs>
    <style>
      .b {
        fill: #fff;
      }

      .c {
        fill: #51a2da;
      }
    </style>
  </defs>
  <rect class="c" width="256" height="256"/>
  <path class="b" d="M167.42,38.26c-21.87,0-41.19,16.15-43.87,37.34-.18,1.77-.23,3.05-.24,4.66l.03,86.63c0,16.62-12.68,27.93-28.53,27.93s-28.65-12.44-28.65-27.95c.26-17.03,14.16-27.84,30.38-28.31h.09l16.46-.15v-22.87l-16.46.12c-29.51-.26-52.94,22.41-53.8,51.22,0,28.02,23.48,50.87,51.98,50.87,26.88,0,49.26-20.6,51.7-46.37.35-8.77.18-20.35.18-20.35.05-4.77-.08-3.06-.03-12.52l20.42-.15c15.8.11,15.62-23.24-.18-22.91l-20.24.15c0-11.75.19-23.43,0-35.2.01-10.18,9.84-19.17,20.75-19.17s22.45,5.34,22.45,19.17c0,1.98-.04,3.13-.15,3.86-1.22,6.42,3.25,12.55,9.84,13.47,6.58.91,12.63-3.75,13.28-10.24.38-2.57.36-4.83.36-7.09,0-24.39-22.23-42.07-45.77-42.07v-.04Z"/>
</svg>