<?xml version="1.0" encoding="UTF-8"?>
<svg id="a" data-name="Layer 1" xmlns="http://www.w3.org/2000/svg" xmlns:xlink="http://www.w3.org/1999/xlink" viewBox="0 0 256 256">
  <defs>
    <style>
      .n {
        fill: url(#k);
      }

      .o {
        fill: url(#c);
      }

      .p {
        fill: url(#d);
      }

      .q {
        fill: url(#l);
      }

      .r {
        fill: url(#h);
      }

      .s {
        fill: url(#j);
      }

      .t {
        fill: url(#g);
      }

      .u {
        fill: url(#m);
      }

      .v {
        fill: url(#e);
      }

      .w {
        fill: url(#i);
      }

      .x {
        fill: url(#f);
      }

      .y {
        fill: url(#b);
      }
    </style>
    <linearGradient id="b" x1="209.28" y1="206.28" x2="39.41" y2="42.39" gradientTransform="translate(0 258) scale(1 -1)" gradientUnits="userSpaceOnUse">
      <stop offset=".05" stop-color="#fff44f"/>
      <stop offset=".11" stop-color="#ffe847"/>
      <stop offset=".22" stop-color="#ffc830"/>
      <stop offset=".37" stop-color="#ff980e"/>
      <stop offset=".4" stop-color="#ff8b16"/>
      <stop offset=".46" stop-color="#ff672a"/>
      <stop offset=".53" stop-color="#ff3647"/>
      <stop offset=".7" stop-color="#e31587"/>
    </linearGradient>
    <radialGradient id="c" cx="-827.1" cy="667.07" fx="-827.1" fy="667.07" r="1" gradientTransform="translate(176640.18 142343.19) scale(213.32 -213.32)" gradientUnits="userSpaceOnUse">
      <stop offset=".13" stop-color="#ffbd4f"/>
      <stop offset=".19" stop-color="#ffac31"/>
      <stop offset=".25" stop-color="#ff9d17"/>
      <stop offset=".28" stop-color="#ff980e"/>
      <stop offset=".4" stop-color="#ff563b"/>
      <stop offset=".47" stop-color="#ff3750"/>
      <stop offset=".71" stop-color="#f5156c"/>
      <stop offset=".78" stop-color="#eb0878"/>
      <stop offset=".86" stop-color="#e50080"/>
    </radialGradient>
    <radialGradient id="d" cx="-827.1" cy="667.07" fx="-827.1" fy="667.07" r="1" gradientTransform="translate(176562.23 142430.4) scale(213.32 -213.32)" gradientUnits="userSpaceOnUse">
      <stop offset=".3" stop-color="#960e18"/>
      <stop offset=".35" stop-color="#b11927" stop-opacity=".74"/>
      <stop offset=".43" stop-color="#db293d" stop-opacity=".34"/>
      <stop offset=".5" stop-color="#f5334b" stop-opacity=".09"/>
      <stop offset=".53" stop-color="#ff3750" stop-opacity="0"/>
    </radialGradient>
    <radialGradient id="e" cx="-825.62" cy="666.34" fx="-825.62" fy="666.34" r="1" gradientTransform="translate(127742.61 102971.64) scale(154.54 -154.54)" gradientUnits="userSpaceOnUse">
      <stop offset=".13" stop-color="#fff44f"/>
      <stop offset=".25" stop-color="#ffdc3e"/>
      <stop offset=".51" stop-color="#ff9d12"/>
      <stop offset=".53" stop-color="#ff980e"/>
    </radialGradient>
    <radialGradient id="f" cx="-822.82" cy="664.95" fx="-822.82" fy="664.95" r="1" gradientTransform="translate(83673.56 67724.7) scale(101.57 -101.57)" gradientUnits="userSpaceOnUse">
      <stop offset=".35" stop-color="#3a8ee6"/>
      <stop offset=".47" stop-color="#5c79f0"/>
      <stop offset=".67" stop-color="#9059ff"/>
      <stop offset="1" stop-color="#c139e6"/>
    </radialGradient>
    <radialGradient id="g" cx="-817.84" cy="659.53" fx="-817.84" fy="659.53" r="1" gradientTransform="translate(52862.4 30006.95) rotate(-13.9) scale(53.81 -63.22)" gradientUnits="userSpaceOnUse">
      <stop offset=".21" stop-color="#9059ff" stop-opacity="0"/>
      <stop offset=".28" stop-color="#8c4ff3" stop-opacity=".06"/>
      <stop offset=".75" stop-color="#7716a8" stop-opacity=".45"/>
      <stop offset=".97" stop-color="#6e008b" stop-opacity=".6"/>
    </radialGradient>
    <radialGradient id="h" cx="-819.63" cy="663.38" fx="-819.63" fy="663.38" r="1" gradientTransform="translate(60013.12 48508.29) scale(73.07 -73.07)" gradientUnits="userSpaceOnUse">
      <stop offset="0" stop-color="#ffe226"/>
      <stop offset=".12" stop-color="#ffdb27"/>
      <stop offset=".3" stop-color="#ffc82a"/>
      <stop offset=".5" stop-color="#ffa930"/>
      <stop offset=".73" stop-color="#ff7e37"/>
      <stop offset=".79" stop-color="#ff7139"/>
    </radialGradient>
    <radialGradient id="i" cx="-828.33" cy="667.68" fx="-828.33" fy="667.68" r="1" gradientTransform="translate(258420.6 208144.47) scale(311.76 -311.76)" gradientUnits="userSpaceOnUse">
      <stop offset=".11" stop-color="#fff44f"/>
      <stop offset=".46" stop-color="#ff980e"/>
      <stop offset=".62" stop-color="#ff5634"/>
      <stop offset=".72" stop-color="#ff3647"/>
      <stop offset=".9" stop-color="#e31587"/>
    </radialGradient>
    <radialGradient id="j" cx="-828.83" cy="674.26" fx="-828.83" fy="674.26" r="1" gradientTransform="translate(-81080.83 197531.3) rotate(84.23) scale(227.24 -149.3)" gradientUnits="userSpaceOnUse">
      <stop offset="0" stop-color="#fff44f"/>
      <stop offset=".06" stop-color="#ffe847"/>
      <stop offset=".17" stop-color="#ffc830"/>
      <stop offset=".3" stop-color="#ff980e"/>
      <stop offset=".36" stop-color="#ff8b16"/>
      <stop offset=".45" stop-color="#ff672a"/>
      <stop offset=".57" stop-color="#ff3647"/>
      <stop offset=".74" stop-color="#e31587"/>
    </radialGradient>
    <radialGradient id="k" cx="-826.73" cy="666.89" fx="-826.73" fy="666.89" r="1" gradientTransform="translate(161028.09 129859.25) scale(194.63 -194.63)" gradientUnits="userSpaceOnUse">
      <stop offset=".14" stop-color="#fff44f"/>
      <stop offset=".48" stop-color="#ff980e"/>
      <stop offset=".59" stop-color="#ff5634"/>
      <stop offset=".66" stop-color="#ff3647"/>
      <stop offset=".9" stop-color="#e31587"/>
    </radialGradient>
    <radialGradient id="l" cx="-827.1" cy="667.07" fx="-827.1" fy="667.07" r="1" gradientTransform="translate(176364.88 142176.23) scale(213.03 -213.03)" gradientUnits="userSpaceOnUse">
      <stop offset=".09" stop-color="#fff44f"/>
      <stop offset=".23" stop-color="#ffe141"/>
      <stop offset=".51" stop-color="#ffaf1e"/>
      <stop offset=".63" stop-color="#ff980e"/>
    </radialGradient>
    <linearGradient id="m" x1="207.24" y1="207.16" x2="62.7" y2="62.62" gradientTransform="translate(0 258) scale(1 -1)" gradientUnits="userSpaceOnUse">
      <stop offset=".17" stop-color="#fff44f" stop-opacity=".8"/>
      <stop offset=".27" stop-color="#fff44f" stop-opacity=".63"/>
      <stop offset=".49" stop-color="#fff44f" stop-opacity=".22"/>
      <stop offset=".6" stop-color="#fff44f" stop-opacity="0"/>
    </linearGradient>
  </defs>
  <path class="y" d="M222.83,89.84c-4.45-10.7-13.46-22.25-20.53-25.9,5.76,11.29,9.09,22.61,10.36,31.06,0,0,0,.06.02.17-11.57-28.84-31.19-40.47-47.21-65.8-.81-1.28-1.62-2.55-2.41-3.92-.45-.77-.81-1.47-1.12-2.13-.66-1.28-1.18-2.63-1.53-4.03,0-.07-.02-.13-.06-.18-.04-.05-.1-.08-.17-.09-.06-.02-.13-.02-.19,0-.02,0-.03.02-.05.03-.03,0-.05.03-.08.04l.04-.06c-25.7,15.06-34.42,42.91-35.22,56.84-10.27.7-20.09,4.48-28.18,10.85-.85-.71-1.73-1.38-2.65-2-2.33-8.16-2.43-16.8-.29-25.01-10.51,4.79-18.69,12.35-24.63,19.04h-.05c-4.06-5.14-3.77-22.09-3.54-25.63-.05-.22-3.02,1.55-3.41,1.81-3.58,2.55-6.93,5.42-10,8.57-3.5,3.55-6.69,7.38-9.55,11.46-6.58,9.33-11.25,19.86-13.73,31.01-.05.22-.09.45-.14.68-.19.9-.89,5.41-1.01,6.39v.23c-.9,4.66-1.47,9.38-1.69,14.12v.52c0,56.51,45.81,102.32,102.32,102.32,50.61,0,92.63-36.74,100.86-85.01.17-1.31.31-2.63.46-3.95,2.03-17.55-.23-36-6.64-51.42ZM104.88,169.94c.48.23.93.48,1.42.7l.07.04c-.49-.24-.99-.48-1.48-.74h0ZM212.69,95.21v-.1.11h0Z"/>
  <path class="o" d="M222.83,89.84c-4.45-10.7-13.46-22.25-20.53-25.9,5.76,11.29,9.09,22.61,10.36,31.06v.21c9.66,26.18,4.39,52.8-3.18,69.06-11.73,25.16-40.11,50.96-84.55,49.7-47.97-1.36-90.27-37.01-98.16-83.65-1.44-7.36,0-11.1.72-17.07-.88,4.6-1.22,5.94-1.66,14.12v.52c0,56.51,45.81,102.32,102.32,102.32,50.61,0,92.63-36.74,100.86-85.01.17-1.31.31-2.63.46-3.95,2.02-17.55-.24-36-6.65-51.42Z"/>
  <path class="p" d="M222.83,89.84c-4.45-10.7-13.46-22.25-20.53-25.9,5.76,11.29,9.09,22.61,10.36,31.06v.21c9.66,26.18,4.39,52.8-3.18,69.06-11.73,25.16-40.11,50.96-84.55,49.7-47.97-1.36-90.27-37.01-98.16-83.65-1.44-7.36,0-11.1.72-17.07-.88,4.6-1.22,5.94-1.66,14.12v.52c0,56.51,45.81,102.32,102.32,102.32,50.61,0,92.63-36.74,100.86-85.01.17-1.31.31-2.63.46-3.95,2.02-17.55-.24-36-6.65-51.42Z"/>
  <path class="v" d="M173.1,101.86c.23.16.43.32.64.47-2.57-4.56-5.77-8.73-9.5-12.4-31.81-31.81-8.34-68.97-4.38-70.86l.04-.06c-25.71,15.06-34.43,42.91-35.23,56.84,1.19-.08,2.38-.18,3.59-.18,19.18,0,35.89,10.55,44.83,26.18Z"/>
  <path class="x" d="M128.33,108.22c-.17,2.55-9.16,11.32-12.31,11.32-29.1,0-33.82,17.6-33.82,17.6,1.28,14.83,11.61,27.03,24.1,33.49.57.29,1.15.56,1.7.82,1,.43,2,.85,3.01,1.23,4.29,1.51,8.77,2.37,13.31,2.56,51,2.39,60.89-60.98,24.08-79.38,9.42-1.64,19.21,2.15,24.67,5.99-8.94-15.63-25.65-26.18-44.84-26.18-1.21,0-2.4.1-3.59.18-10.26.71-20.08,4.5-28.16,10.87,1.56,1.32,3.33,3.09,7.03,6.74,6.96,6.86,24.76,13.93,24.8,14.76Z"/>
  <path class="t" d="M128.33,108.22c-.17,2.55-9.16,11.32-12.31,11.32-29.1,0-33.82,17.6-33.82,17.6,1.28,14.83,11.61,27.03,24.1,33.49.57.29,1.15.56,1.7.82,1,.43,2,.85,3.01,1.23,4.29,1.51,8.77,2.37,13.31,2.56,51,2.39,60.89-60.98,24.08-79.38,9.42-1.64,19.21,2.15,24.67,5.99-8.94-15.63-25.65-26.18-44.84-26.18-1.21,0-2.4.1-3.59.18-10.26.71-20.08,4.5-28.16,10.87,1.56,1.32,3.33,3.09,7.03,6.74,6.96,6.86,24.76,13.93,24.8,14.76Z"/>
  <path class="r" d="M91.74,83.32c.83.54,1.51.99,2.13,1.4-2.33-8.16-2.43-16.8-.29-25.01-10.51,4.79-18.69,12.35-24.63,19.04.48-.01,15.32-.28,22.79,4.57Z"/>
  <path class="w" d="M26.76,130.32c7.9,46.64,50.19,82.29,98.2,83.65,44.44,1.26,72.81-24.54,84.55-49.7,7.58-16.27,12.84-42.89,3.18-69.06v-.2s0,.06.02.17c3.63,23.7-8.43,46.67-27.27,62.19-.02.04-.04.09-.06.13-36.72,29.9-71.86,18.04-78.98,13.2-.49-.24-.99-.49-1.49-.74-21.41-10.22-30.26-29.74-28.36-46.47-18.07,0-24.24-15.25-24.24-15.25,0,0,16.23-11.57,37.62-1.51,19.81,9.32,38.42,1.51,38.42,1.51-.04-.83-17.85-7.92-24.79-14.76-3.71-3.65-5.47-5.42-7.03-6.74-.85-.71-1.73-1.38-2.65-2-.61-.43-1.28-.85-2.13-1.4-7.46-4.85-22.31-4.59-22.8-4.57h-.05c-4.06-5.14-3.77-22.09-3.54-25.63-.05-.22-3.02,1.55-3.41,1.81-3.58,2.55-6.93,5.42-10,8.57-3.5,3.55-6.69,7.38-9.55,11.46-6.58,9.33-11.25,19.86-13.73,31.01-.08.2-3.72,16.09-1.92,24.33Z"/>
  <path class="s" d="M164.23,89.94c3.74,3.66,6.94,7.84,9.5,12.4.53.4,1.04.83,1.53,1.28,23.2,21.36,11.06,51.59,10.14,53.76,18.85-15.53,30.9-38.49,27.27-62.19-11.57-28.86-31.19-40.49-47.21-65.81-.81-1.28-1.62-2.55-2.41-3.92-.45-.77-.81-1.47-1.12-2.13-.66-1.28-1.18-2.63-1.53-4.03,0-.07-.02-.13-.06-.18-.04-.05-.1-.08-.17-.09-.06-.02-.13-.02-.19,0-.02,0-.03.02-.05.03-.02,0-.05.03-.08.04-3.96,1.89-27.43,39.05,4.38,70.86Z"/>
  <path class="n" d="M175.26,103.59c-.49-.45-1-.88-1.53-1.28-.21-.16-.43-.32-.64-.47-5.46-3.83-15.25-7.63-24.67-5.99,36.8,18.4,26.92,81.78-24.08,79.38-4.54-.18-9.03-1.04-13.32-2.55-1-.38-2-.79-3.01-1.23-.58-.26-1.15-.53-1.7-.82l.07.04c7.11,4.85,42.25,16.72,78.98-13.2,0,0,.02-.06.06-.13.91-2.13,13.05-32.37-10.16-53.75Z"/>
  <path class="q" d="M82.2,137.15s4.72-17.6,33.82-17.6c3.15,0,12.14-8.78,12.3-11.32.17-2.55-18.61,7.82-38.42-1.51-21.39-10.07-37.62,1.51-37.62,1.51,0,0,6.17,15.25,24.24,15.25-1.89,16.73,6.95,36.23,28.36,46.47.48.22.93.48,1.42.7-12.5-6.45-22.81-18.67-24.1-33.49Z"/>
  <path class="u" d="M222.83,89.84c-4.45-10.7-13.46-22.25-20.53-25.9,5.76,11.29,9.09,22.61,10.36,31.06,0,0,0,.06.02.17-11.57-28.84-31.19-40.47-47.21-65.8-.81-1.28-1.62-2.55-2.41-3.92-.45-.77-.81-1.47-1.12-2.13-.66-1.28-1.18-2.63-1.53-4.03,0-.07-.02-.13-.06-.18-.04-.05-.1-.08-.17-.09-.06-.02-.13-.02-.19,0-.02,0-.03.02-.05.03-.03,0-.05.03-.08.04l.04-.06c-25.7,15.06-34.42,42.91-35.22,56.84,1.19-.08,2.38-.18,3.59-.18,19.18,0,35.89,10.55,44.83,26.18-5.46-3.83-15.25-7.63-24.67-5.99,36.81,18.4,26.92,81.78-24.08,79.38-4.54-.18-9.03-1.04-13.31-2.55-1-.38-2-.79-3.01-1.23-.58-.26-1.15-.53-1.7-.82l.07.04c-.49-.24-.99-.49-1.49-.74.48.23.93.48,1.42.7-12.52-6.46-22.84-18.68-24.13-33.5,0,0,4.72-17.6,33.82-17.6,3.15,0,12.14-8.78,12.31-11.33-.04-.83-17.85-7.92-24.79-14.76-3.71-3.65-5.47-5.42-7.03-6.74-.85-.71-1.73-1.38-2.65-2-2.33-8.16-2.43-16.8-.29-25.01-10.51,4.79-18.69,12.35-24.63,19.04h-.05c-4.06-5.14-3.77-22.09-3.54-25.63-.05-.22-3.02,1.55-3.41,1.81-3.58,2.55-6.93,5.42-10,8.57-3.5,3.55-6.69,7.38-9.55,11.46-6.58,9.33-11.25,19.86-13.73,31.01-.05.22-.09.45-.14.68-.19.9-1.06,5.47-1.18,6.45,0-.07,0,.08,0,0-.8,4.73-1.31,9.49-1.53,14.28v.52c0,56.51,45.81,102.32,102.32,102.32,50.61,0,92.63-36.74,100.86-85.01.17-1.31.31-2.63.46-3.95,2.03-17.55-.23-36-6.64-51.42Z"/>
</svg>