<?xml version="1.0" encoding="UTF-8"?>
<svg id="a" data-name="Layer 8" xmlns="http://www.w3.org/2000/svg" viewBox="0 0 256 256">
  <defs>
    <style>
      .b {
        fill: #e95420;
      }

      .c {
        fill: #fff;
      }

      .d {
        fill: none;
      }
    </style>
  </defs>
  <rect class="b" width="256" height="256"/>
  <g>
    <rect class="d" x="38.56" y="46.42" width="172.5" height="172.5"/>
    <circle class="c" cx="63.37" cy="123.54" r="23.44"/>
    <circle class="c" cx="160.98" cy="72.14" r="23.44"/>
    <path class="c" d="M116.23,183.87c-16.89-3.62-30.99-14.4-38.93-29.69-6.25,2.84-13.28,3.71-20.04,2.46,9.6,23.57,29.95,40.69,54.94,46.05,5.48,1.18,11.07,1.75,16.65,1.71-4.3-5.66-6.7-12.48-6.86-19.6-1.93-.21-3.86-.53-5.75-.94h0Z"/>
    <circle class="c" cx="155.71" cy="183.99" r="23.44"/>
    <path class="c" d="M188.32,175.38c7.29-9.19,12.42-20.05,14.89-31.59,4.31-20.13.29-41.25-11.05-58.38-2.7,6.36-7.28,11.74-13.18,15.43,6.33,11.92,8.25,25.68,5.42,38.92-1.39,6.48-3.84,12.58-7.29,18.16,5.52,4.53,9.41,10.61,11.22,17.47h0Z"/>
    <path class="c" d="M61.56,89.92c.6-.04,1.19-.04,1.78-.04,2.37,0,4.73.25,7.08.76,3.82.82,7.41,2.26,10.7,4.31,10.55-15.18,27.58-24.28,46.03-24.62.1-1.77.34-3.54.7-5.28,1.08-5.02,3.27-9.71,6.41-13.73-29.48-2.33-58.12,12.88-72.71,38.61h0Z"/>
  </g>
</svg>