<?xml version="1.0" encoding="UTF-8"?>
<svg id="a" data-name="Layer 17" xmlns="http://www.w3.org/2000/svg" viewBox="0 0 256 256">
  <defs>
    <style>
      .b {
        fill: #fff;
        fill-rule: evenodd;
      }

      .c {
        fill: #dd682a;
      }
    </style>
  </defs>
  <rect class="c" width="256" height="256"/>
  <path class="b" d="M186.74,36.33l-29.26,16.7c11.06,3.7,21.01,9.76,29.26,17.56v-34.27ZM25.4,127.06l29.52-16.85c-1.21,5.43-1.84,11.06-1.84,16.85s.64,11.42,1.84,16.85l-29.52-16.85ZM64.37,128.03c0-.32,0-.64,0-.96s0-.64,0-.96v1.93ZM186.74,217.74l-29.2-16.67c11.03-3.7,20.97-9.75,29.2-17.54v34.21ZM106.03,77.9c7.82-4.08,16.73-6.39,26.19-6.39,29.13,0,53.08,21.91,55.91,49.97h11.6c-2.87-34.38-31.99-61.39-67.51-61.39-11.56,0-22.44,2.86-31.97,7.91l5.78,9.9ZM90.77,74.09l5.84,10c-12.56,10.19-20.58,25.66-20.58,42.98,0,11.37,3.46,21.93,9.39,30.73l48.57-55.19,7.74,13.67-54.31,61.02c-14.07-12.27-22.95-30.23-22.95-50.24,0-21.55,10.3-40.73,26.29-52.98ZM199.73,132.64h-11.62c-.3,2.75-.8,5.44-1.47,8.07l-26.69-29.33-64.19,72.14c10.53,6.66,23.04,10.52,36.47,10.52,35.52,0,64.64-27.01,67.51-61.39Z"/>
</svg>