<?xml version="1.0" encoding="UTF-8"?>
<svg xmlns="http://www.w3.org/2000/svg" xmlns:xlink="http://www.w3.org/1999/xlink" viewBox="0 0 256 256">
  <defs>
    <style>
      .cls-1 {
        fill: #fff;
      }

      .cls-2 {
        fill: url(#linear-gradient);
        fill-rule: evenodd;
      }
    </style>
    <linearGradient id="linear-gradient" x1="40.76" y1="130" x2="215.24" y2="130" gradientTransform="translate(0 258) scale(1 -1)" gradientUnits="userSpaceOnUse">
      <stop offset="0" stop-color="#ff5601"/>
      <stop offset=".5" stop-color="#ff4000"/>
      <stop offset="1" stop-color="#ff1f01"/>
    </linearGradient>
  </defs>
  <g id="Layer_4" data-name="Layer 4">
    <rect class="cls-1" width="256" height="256"/>
  </g>
  <g id="Layer_5" data-name="Layer 5">
    <g>
      <path class="cls-2" d="M209.13,74.82l4.8-11.77s-6.11-6.54-13.52-13.95c-7.42-7.41-23.12-3.05-23.12-3.05l-17.88-20.27h-62.81l-17.88,20.27s-15.7-4.36-23.12,3.05c-7.42,7.41-13.52,13.95-13.52,13.95l4.8,11.77-6.11,17.43s17.96,67.98,20.06,76.28c4.14,16.34,6.98,22.66,18.76,30.95,11.78,8.28,33.15,22.67,36.64,24.84,3.49,2.18,7.85,5.89,11.78,5.89s8.29-3.71,11.78-5.89c3.49-2.18,24.86-16.56,36.64-24.84,11.78-8.28,14.61-14.6,18.76-30.95,2.1-8.3,20.06-76.28,20.06-76.28l-6.11-17.43Z"/>
      <path class="cls-1" d="M150.25,62.62c2.62,0,22.03-3.7,22.03-3.7,0,0,23,27.79,23,33.73,0,4.91-1.98,6.83-4.31,9.1-.49.47-.99.96-1.5,1.5l-17.25,18.3c-.17.18-.36.37-.56.58-1.72,1.73-4.26,4.28-2.47,8.51.12.28.24.57.37.86,1.96,4.58,4.38,10.24,1.3,15.97-3.28,6.1-8.89,10.17-12.49,9.5-3.6-.67-12.05-5.09-15.16-7.1-3.11-2.02-12.96-10.13-12.96-13.24,0-2.59,7.08-6.9,10.53-8.99.68-.42,1.22-.75,1.54-.96.36-.24.95-.61,1.68-1.06,3.14-1.95,8.81-5.47,8.96-7.03.18-1.93.11-2.49-2.42-7.25-.54-1.01-1.17-2.09-1.82-3.21-2.41-4.15-5.11-8.79-4.51-12.11.67-3.75,6.56-5.91,11.55-7.73.62-.23,1.23-.45,1.81-.67,1.45-.55,3.28-1.23,5.19-1.95,4.98-1.86,10.51-3.93,11.42-4.35,1.26-.58.94-1.14-2.89-1.5-.51-.05-1.13-.11-1.86-.19-4.73-.5-13.46-1.43-17.71-.25-.83.23-1.77.49-2.75.75-4.77,1.29-10.61,2.87-11.17,3.78-.1.16-.19.3-.29.43-.54.76-.89,1.26-.29,4.5.18.97.54,2.86.99,5.21,1.32,6.87,3.37,17.6,3.63,20.01.04.34.08.66.11.98.33,2.69.55,4.48-2.57,5.19-.26.06-.53.12-.82.19-3.52.81-8.69,1.99-10.56,1.99s-7.04-1.19-10.56-1.99c-.28-.06-.55-.13-.81-.19-3.12-.71-2.9-2.5-2.58-5.19.04-.31.08-.64.11-.98.26-2.41,2.32-13.16,3.64-20.04.45-2.33.81-4.22.99-5.18.59-3.24.24-3.74-.29-4.5-.09-.13-.19-.27-.29-.43-.56-.91-6.4-2.49-11.17-3.78-.98-.27-1.92-.52-2.75-.75-4.24-1.18-12.97-.26-17.71.25-.72.08-1.35.14-1.86.19-3.82.36-4.15.92-2.89,1.5.91.42,6.44,2.49,11.42,4.35,1.91.72,3.74,1.4,5.2,1.95.58.22,1.19.44,1.82.67,4.99,1.82,10.87,3.97,11.55,7.73.6,3.32-2.1,7.97-4.51,12.11-.65,1.12-1.28,2.2-1.82,3.22-2.53,4.76-2.6,5.32-2.42,7.25.14,1.56,5.81,5.08,8.95,7.03.73.45,1.33.82,1.68,1.06.31.21.85.54,1.54.95,3.44,2.09,10.53,6.4,10.53,8.99,0,3.11-9.85,11.22-12.96,13.24-3.11,2.02-11.56,6.43-15.16,7.1-3.6.67-9.21-3.4-12.49-9.5-3.08-5.73-.66-11.39,1.3-15.97.12-.29.25-.58.37-.86,1.79-4.23-.75-6.78-2.47-8.51-.2-.2-.39-.39-.56-.57l-17.25-18.3c-.5-.53-1.01-1.02-1.49-1.5-2.33-2.26-4.31-4.19-4.31-9.1,0-5.94,23-33.73,23-33.73,0,0,19.41,3.7,22.03,3.7,2.09,0,6.12-1.39,10.32-2.83,1.06-.37,2.14-.74,3.2-1.09,5.23-1.74,8.72-1.76,8.72-1.76,0,0,3.49.01,8.72,1.76,1.06.35,2.13.72,3.2,1.09,4.2,1.45,8.24,2.83,10.32,2.83Z"/>
      <path class="cls-1" d="M146.91,160.9c4.1,2.11,7.01,3.61,8.12,4.3,1.42.89.56,2.57-.74,3.49-1.3.92-18.73,14.4-20.42,15.89-.22.19-.45.4-.68.61-1.63,1.47-3.71,3.34-5.18,3.34s-3.56-1.87-5.18-3.34c-.24-.21-.47-.42-.68-.61-1.69-1.49-19.12-14.98-20.42-15.89-1.3-.92-2.17-2.6-.74-3.49,1.1-.69,4.02-2.19,8.12-4.3,1.2-.62,2.51-1.29,3.9-2.01,6.15-3.18,13.81-5.88,15-5.88s8.86,2.7,15,5.88c1.4.72,2.7,1.4,3.91,2.02Z"/>
    </g>
  </g>
</svg>