<svg id="a" data-name="Layer 7" xmlns="http://www.w3.org/2000/svg" viewBox="0 0 256 256"><defs><style>.i{fill:#fff}.j{fill:#0079c1}</style></defs><path class="j" d="M0 0h256v256H0z"/><g id="b" data-name="g4835-5-6-3"><path id="c" data-name="path79-9-8-1" class="i" d="m92.69 168.37 3.82-82.94-25.42-23.16c-.6-.39-1.4-.31-1.91.2L57.44 74.21c-.49.5-.59 1.26-.22 1.86l13.75 22.64a59 59 0 0 0-5.79 13.18l-25.24 5.25c-.7.15-1.21.77-1.21 1.49v16.61c0 .7.48 1.31 1.16 1.47l24.5 5.99c1.31 5.4 3.33 10.52 6.01 15.23l-14.18 21.63c-.4.6-.31 1.4.2 1.91l11.74 11.74c.49.49 1.26.59 1.87.23l22.67-25.08Z"/></g><g id="d" data-name="g4835-5-6-3-7"><path id="e" data-name="path79-9-8-1-7" class="i" d="m112.01 76.54 71.04 43.56 33.36-7.3c.65-.31.99-1.03.82-1.73l-3.93-16.14c-.17-.68-.78-1.16-1.48-1.16l-26.49-.02c-2.24-4.21-5-8.18-8.26-11.8l8.63-24.3c.24-.68-.03-1.43-.64-1.81l-14.19-8.63c-.6-.36-1.37-.27-1.86.22l-17.85 17.82a58.7 58.7 0 0 0-16.13-2.78l-11.11-23.35c-.31-.65-1.03-1-1.73-.82l-16.13 3.93c-.68.17-1.16.78-1.16 1.48l7.11 32.82Z"/></g><g id="f" data-name="g4835-5-6-3-1"><path id="g" data-name="path79-9-8-1-5" class="i" d="m181.65 139.69-71.69 39.3-8.67 32.83c-.04.72.43 1.37 1.12 1.55l16.04 4.31c.68.18 1.39-.12 1.73-.74l12.76-23.22c4.77.07 9.58-.45 14.31-1.57l17.15 19.25c.48.54 1.27.66 1.89.3l14.39-8.29c.61-.35.9-1.07.7-1.74l-7.04-24.22c4.03-3.83 7.45-8.14 10.19-12.81l25.82 1.49c.72.04 1.37-.43 1.56-1.13l4.31-16.04c.18-.67-.12-1.39-.74-1.73l-33.83-7.58Z"/></g><path id="h" data-name="path2819-8-3-8-5" class="j" d="M183.83 128.19c0 29.99-24.31 54.3-54.3 54.3s-54.3-24.31-54.3-54.3 24.31-54.3 54.3-54.3 54.3 24.31 54.3 54.3"/></svg>