<svg id="a" data-name="Layer 8" xmlns="http://www.w3.org/2000/svg" viewBox="0 0 256 256"><defs><style>.c{fill:#fff}</style></defs><path style="fill:#e95420" d="M0 0h256v256H0z"/><path style="fill:none" d="M38.56 46.42h172.5v172.5H38.56z"/><circle class="c" cx="63.37" cy="123.54" r="23.44"/><circle class="c" cx="160.98" cy="72.14" r="23.44"/><path class="c" d="M116.23 183.87c-16.89-3.62-30.99-14.4-38.93-29.69a33.74 33.74 0 0 1-20.04 2.46c9.6 23.57 29.95 40.69 54.94 46.05a76.5 76.5 0 0 0 16.65 1.71c-4.3-5.66-6.7-12.48-6.86-19.6-1.93-.21-3.86-.53-5.75-.94Z"/><circle class="c" cx="155.71" cy="183.99" r="23.44"/><path class="c" d="M188.32 175.38a76.8 76.8 0 0 0 14.89-31.59c4.31-20.13.29-41.25-11.05-58.38a33.7 33.7 0 0 1-13.18 15.43 57.35 57.35 0 0 1 5.42 38.92 57.2 57.2 0 0 1-7.29 18.16 33.62 33.62 0 0 1 11.22 17.47ZM61.56 89.92c.6-.04 1.19-.04 1.78-.04 2.37 0 4.73.25 7.08.76 3.82.82 7.41 2.26 10.7 4.31 10.55-15.18 27.58-24.28 46.03-24.62.1-1.77.34-3.54.7-5.28 1.08-5.02 3.27-9.71 6.41-13.73-29.48-2.33-58.12 12.88-72.71 38.61Z"/></svg>