<?xml version="1.0" encoding="UTF-8"?>
<svg id="a" data-name="Layer 16" xmlns="http://www.w3.org/2000/svg" viewBox="0 0 256 256">
  <defs>
    <style>
      .b {
        fill: #f2f0e3;
        fill-rule: evenodd;
      }

      .c {
        fill: #202020;
      }
    </style>
  </defs>
  <rect class="c" width="256" height="256"/>
  <g>
    <path class="b" d="M128,165.62c20.77,0,37.62-16.84,37.62-37.62s-16.84-37.62-37.62-37.62-37.62,16.84-37.62,37.62,16.84,37.62,37.62,37.62ZM158.09,128c0,16.62-13.47,30.09-30.09,30.09s-30.09-13.47-30.09-30.09,13.47-30.09,30.09-30.09,30.09,13.47,30.09,30.09Z"/>
    <path class="b" d="M193.2,128c0,36.01-29.19,65.2-65.2,65.2s-65.2-29.19-65.2-65.2,29.19-65.2,65.2-65.2,65.2,29.19,65.2,65.2ZM128,180.66c29.08,0,52.66-23.58,52.66-52.66s-23.58-52.66-52.66-52.66-52.66,23.58-52.66,52.66,23.58,52.66,52.66,52.66Z"/>
    <path class="b" d="M225.8,128c0,54.01-43.79,97.8-97.8,97.8S30.2,182.01,30.2,128,73.99,30.2,128,30.2s97.8,43.79,97.8,97.8ZM128,208.25c44.32,0,80.25-35.93,80.25-80.25s-35.93-80.25-80.25-80.25-80.25,35.93-80.25,80.25,35.93,80.25,80.25,80.25Z"/>
  </g>
</svg>